<svg xmlns="http://www.w3.org/2000/svg" width="128" height="128" viewBox="0 0 128 128" role="img" aria-label="Chef hat icon">
	<rect width="128" height="128" rx="28" fill="#0f172a" />
	<path d="M38 76h52v22H38z" fill="#22d3ee" />
	<path d="M34 76h60" stroke="#ffffff" stroke-width="10" stroke-linecap="round" />
	<path d="M28 62c0-11 8-20 19-20 2.5 0 4.8.4 7 .9C57 34 66 28 76 28c13 0 24 11 24 24v1c8 2 14 9 14 18 0 10-8 18-18 18H42c-8 0-14-6-14-14 0-5 2-9 7-13Z" fill="#ffffff" stroke="#ffffff" stroke-width="4" stroke-linejoin="round" />
	<circle cx="50" cy="56" r="5" fill="#0f172a" />
	<circle cx="66" cy="50" r="5" fill="#0f172a" />
	<circle cx="83" cy="58" r="5" fill="#0f172a" />
</svg>